<svg xmlns="http://www.w3.org/2000/svg" width="1200" height="600"><rect width="1200" height="600" x="0" y="0" fill="#FFFFFF" id="backgorund"/><g id="viz"><g transform="translate(0,0)"><g transform="translate(50,50)"><g class="bars"><rect id="undefined - True to size" x="178.79166643851045" y="210.00000000000003" height="290" width="46.76374627939578" fill="#67abdb"/><rect id="undefined - how detailed the size-chart is" x="235.65802173496488" y="300" height="200" width="46.76374627939578" fill="#f19240"/><rect id="undefined - True to size" x="617.5782319856394" y="70" height="430" width="46.76374627939578" fill="#67abdb"/><rect id="undefined - how detailed the size-chart is" x="674.4445872820938" y="250" height="250" width="46.76374627939578" fill="#f19240"/><rect id="undefined - True to size" x="471.3160434699297" y="0" height="500" width="46.76374627939578" fill="#67abdb"/><rect id="undefined - how detailed the size-chart is" x="528.1823987663842" y="150.00000000000003" height="350" width="46.76374627939578" fill="#f19240"/><rect id="undefined - True to size" x="763.8404205013491" y="75.00000000000001" height="425" width="46.76374627939578" fill="#67abdb"/><rect id="undefined - how detailed the size-chart is" x="820.7067757978035" y="300" height="200" width="46.76374627939578" fill="#f19240"/><rect id="undefined - True to size" x="325.0538549542201" y="0" height="500" width="46.76374627939578" fill="#67abdb"/><rect id="undefined - how detailed the size-chart is" x="381.92021025067453" y="250" height="250" width="46.76374627939578" fill="#f19240"/><rect id="undefined - True to size" x="32.529477922800794" y="90.00000000000003" height="410" width="46.76374627939578" fill="#67abdb"/><rect id="undefined - how detailed the size-chart is" x="89.39583321925522" y="300" height="200" width="46.76374627939578" fill="#f19240"/></g><g id="xAxis" transform="translate(0,500)" fill="none" font-size="10" font-family="sans-serif" text-anchor="middle"><path class="domain" stroke="currentColor" d="M0,0H900"/><g class="tick" opacity="1" transform="translate(84.3445287107259,0)"><line stroke="currentColor" y2="6"/><text fill="currentColor" y="9" dy="0.71em">Aurelia</text></g><g class="tick" opacity="1" transform="translate(230.60671722643553,0)"><line stroke="currentColor" y2="6"/><text fill="currentColor" y="9" dy="0.71em">Biba</text></g><g class="tick" opacity="1" transform="translate(376.8689057421452,0)"><line stroke="currentColor" y2="6"/><text fill="currentColor" y="9" dy="0.71em">Ethnicity</text></g><g class="tick" opacity="1" transform="translate(523.1310942578548,0)"><line stroke="currentColor" y2="6"/><text fill="currentColor" y="9" dy="0.71em">Fabindia</text></g><g class="tick" opacity="1" transform="translate(669.3932827735645,0)"><line stroke="currentColor" y2="6"/><text fill="currentColor" y="9" dy="0.71em">Global Desi</text></g><g class="tick" opacity="1" transform="translate(815.6554712892741,0)"><line stroke="currentColor" y2="6"/><text fill="currentColor" y="9" dy="0.71em">W for Women</text></g></g><g id="yAxis" fill="none" font-size="10" font-family="sans-serif" text-anchor="end"><path class="domain" stroke="currentColor" d="M0,500V0"/><g class="tick" opacity="1" transform="translate(0,500)"><line stroke="currentColor" x2="-6"/><text fill="currentColor" x="-9" dy="0.32em">0</text></g><g class="tick" opacity="1" transform="translate(0,450)"><line stroke="currentColor" x2="-6"/><text fill="currentColor" x="-9" dy="0.32em">1</text></g><g class="tick" opacity="1" transform="translate(0,400)"><line stroke="currentColor" x2="-6"/><text fill="currentColor" x="-9" dy="0.32em">2</text></g><g class="tick" opacity="1" transform="translate(0,350)"><line stroke="currentColor" x2="-6"/><text fill="currentColor" x="-9" dy="0.32em">3</text></g><g class="tick" opacity="1" transform="translate(0,300)"><line stroke="currentColor" x2="-6"/><text fill="currentColor" x="-9" dy="0.32em">4</text></g><g class="tick" opacity="1" transform="translate(0,250)"><line stroke="currentColor" x2="-6"/><text fill="currentColor" x="-9" dy="0.32em">5</text></g><g class="tick" opacity="1" transform="translate(0,200)"><line stroke="currentColor" x2="-6"/><text fill="currentColor" x="-9" dy="0.32em">6</text></g><g class="tick" opacity="1" transform="translate(0,150.00000000000003)"><line stroke="currentColor" x2="-6"/><text fill="currentColor" x="-9" dy="0.32em">7</text></g><g class="tick" opacity="1" transform="translate(0,99.99999999999997)"><line stroke="currentColor" x2="-6"/><text fill="currentColor" x="-9" dy="0.32em">8</text></g><g class="tick" opacity="1" transform="translate(0,49.999999999999986)"><line stroke="currentColor" x2="-6"/><text fill="currentColor" x="-9" dy="0.32em">9</text></g><g class="tick" opacity="1" transform="translate(0,0)"><line stroke="currentColor" x2="-6"/><text fill="currentColor" x="-9" dy="0.32em">10</text></g></g><text y="496" x="900" text-anchor="end" style="font-family: Arial, sans-serif; font-size: 12px; fill: rgb(123, 123, 123); font-weight: bold;">Sets</text><text y="0" x="4" dominant-baseline="hanging" text-anchor="start" style="font-family: Arial, sans-serif; font-size: 12px; fill: rgb(123, 123, 123); font-weight: bold;">Value</text></g><text x="4" y="4" style="font-family: Arial, sans-serif; font-size: 12px; fill: black; font-weight: bold; dominant-baseline: hanging;"/></g><g id="grid"><rect x="0" y="0" width="1000" height="600" fill="none" stroke="#ccc"/></g></g><g id="legend" transform="translate(1000,50)"><g transform="translate(5,0)"><g class="legendColor" transform="translate(0,0)"><g class="legendCells" transform="translate(0,15.5)"><g class="cell" transform="translate(0, 0)"><rect class="swatch" height="15" width="15" style="fill: rgb(103, 171, 219);"/><text class="label" transform="translate( 20, 12.5)" font-family="&quot;Arial&quot;, sans-serif" font-size="10px"><tspan x="0" dy="0em">True to size</tspan></text></g><g class="cell" transform="translate(0, 20.5)"><rect class="swatch" height="15" width="15" style="fill: rgb(241, 146, 64);"/><text class="label" transform="translate( 20, 12.5)" font-family="&quot;Arial&quot;, sans-serif" font-size="10px"><tspan x="0" dy="0em">how detailed the size-chart</tspan><tspan x="0" dy="1.2em">is</tspan></text></g></g><text class="legendTitle" font-family="&quot;Arial&quot;, sans-serif" font-size="12px" font-weight="bold"><tspan x="0" dy="0em">Colors</tspan></text></g></g></g></svg>