<svg xmlns="http://www.w3.org/2000/svg" width="805" height="600"><rect width="805" height="600" x="0" y="0" fill="#FFFFFF" id="backgorund"/><g id="viz"><g transform="translate(0,0)"><g transform="translate(50,20)"><g class="bars"><rect id="undefined - Sales" x="321.7674957253603" y="452.3076923076923" height="107.69230769230768" width="50.23729144380664" fill="#ffaf6c"/><rect id="undefined - Profit" x="372.995212830833" y="516.9230769230769" height="43.076923076923094" width="50.23729144380664" fill="#78bae9"/><rect id="undefined - Sales" x="180.35985241325838" y="21.538461538461526" height="538.4615384615385" width="50.23729144380664" fill="#ffaf6c"/><rect id="undefined - Profit" x="231.58756951873107" y="387.6923076923077" height="172.30769230769232" width="50.23729144380664" fill="#78bae9"/><rect id="undefined - Sales" x="604.5827823495641" y="236.92307692307696" height="323.07692307692304" width="50.23729144380664" fill="#ffaf6c"/><rect id="undefined - Profit" x="655.8104994550367" y="430.7692307692307" height="129.23076923076928" width="50.23729144380664" fill="#78bae9"/><rect id="undefined - Sales" x="463.1751390374622" y="129.2307692307692" height="430.76923076923083" width="50.23729144380664" fill="#ffaf6c"/><rect id="undefined - Profit" x="514.4028561429349" y="452.3076923076923" height="107.69230769230768" width="50.23729144380664" fill="#78bae9"/><rect id="undefined - Sales" x="38.95220910115649" y="344.61538461538464" height="215.38461538461536" width="50.23729144380664" fill="#ffaf6c"/><rect id="undefined - Profit" x="90.17992620662919" y="495.38461538461536" height="64.61538461538464" width="50.23729144380664" fill="#78bae9"/></g><g id="xAxis" transform="translate(0,560)" fill="none" font-size="10" font-family="sans-serif" text-anchor="middle"><path class="domain" stroke="currentColor" d="M0,0H745"/><g class="tick" opacity="1" transform="translate(89.68471337579615,0)"><line stroke="currentColor" y2="6"/><text fill="currentColor" y="9" dy="0.71em">Central</text></g><g class="tick" opacity="1" transform="translate(231.09235668789805,0)"><line stroke="currentColor" y2="6"/><text fill="currentColor" y="9" dy="0.71em">East</text></g><g class="tick" opacity="1" transform="translate(372.49999999999994,0)"><line stroke="currentColor" y2="6"/><text fill="currentColor" y="9" dy="0.71em">North</text></g><g class="tick" opacity="1" transform="translate(513.9076433121019,0)"><line stroke="currentColor" y2="6"/><text fill="currentColor" y="9" dy="0.71em">South</text></g><g class="tick" opacity="1" transform="translate(655.3152866242037,0)"><line stroke="currentColor" y2="6"/><text fill="currentColor" y="9" dy="0.71em">West</text></g></g><g id="yAxis" fill="none" font-size="10" font-family="sans-serif" text-anchor="end"><path class="domain" stroke="currentColor" d="M0,560V0"/><g class="tick" opacity="1" transform="translate(0,560)"><line stroke="currentColor" x2="-6"/><text fill="currentColor" x="-9" dy="0.32em">0</text></g><g class="tick" opacity="1" transform="translate(0,516.9230769230769)"><line stroke="currentColor" x2="-6"/><text fill="currentColor" x="-9" dy="0.32em">2</text></g><g class="tick" opacity="1" transform="translate(0,473.84615384615387)"><line stroke="currentColor" x2="-6"/><text fill="currentColor" x="-9" dy="0.32em">4</text></g><g class="tick" opacity="1" transform="translate(0,430.7692307692307)"><line stroke="currentColor" x2="-6"/><text fill="currentColor" x="-9" dy="0.32em">6</text></g><g class="tick" opacity="1" transform="translate(0,387.6923076923077)"><line stroke="currentColor" x2="-6"/><text fill="currentColor" x="-9" dy="0.32em">8</text></g><g class="tick" opacity="1" transform="translate(0,344.61538461538464)"><line stroke="currentColor" x2="-6"/><text fill="currentColor" x="-9" dy="0.32em">10</text></g><g class="tick" opacity="1" transform="translate(0,301.53846153846155)"><line stroke="currentColor" x2="-6"/><text fill="currentColor" x="-9" dy="0.32em">12</text></g><g class="tick" opacity="1" transform="translate(0,258.46153846153845)"><line stroke="currentColor" x2="-6"/><text fill="currentColor" x="-9" dy="0.32em">14</text></g><g class="tick" opacity="1" transform="translate(0,215.38461538461536)"><line stroke="currentColor" x2="-6"/><text fill="currentColor" x="-9" dy="0.32em">16</text></g><g class="tick" opacity="1" transform="translate(0,172.30769230769232)"><line stroke="currentColor" x2="-6"/><text fill="currentColor" x="-9" dy="0.32em">18</text></g><g class="tick" opacity="1" transform="translate(0,129.2307692307692)"><line stroke="currentColor" x2="-6"/><text fill="currentColor" x="-9" dy="0.32em">20</text></g><g class="tick" opacity="1" transform="translate(0,86.15384615384616)"><line stroke="currentColor" x2="-6"/><text fill="currentColor" x="-9" dy="0.32em">22</text></g><g class="tick" opacity="1" transform="translate(0,43.07692307692305)"><line stroke="currentColor" x2="-6"/><text fill="currentColor" x="-9" dy="0.32em">24</text></g><g class="tick" opacity="1" transform="translate(0,0)"><line stroke="currentColor" x2="-6"/><text fill="currentColor" x="-9" dy="0.32em">26</text></g></g><text y="556" x="745" text-anchor="end" style="font-family: Arial, sans-serif; font-size: 12px; fill: rgb(123, 123, 123); font-weight: bold;">Sets</text><text y="0" x="4" dominant-baseline="hanging" text-anchor="start" style="font-family: Arial, sans-serif; font-size: 12px; fill: rgb(123, 123, 123); font-weight: bold;">Value</text></g><text x="4" y="4" style="font-family: Arial, sans-serif; font-size: 12px; fill: black; font-weight: bold; dominant-baseline: hanging;"/></g><g id="grid"><rect x="0" y="0" width="805" height="600" fill="none" stroke="#ccc"/></g></g></svg>